<mxfile host="app.diagrams.net" modified="2022-06-09T10:03:36.378Z" agent="5.0 (X11; Linux x86_64) AppleWebKit/537.36 (KHTML, like Gecko) Chrome/102.0.5005.61 Safari/537.36" etag="XzWZN6yQJfSXl66Qq-sU" version="19.0.2" type="github">
  <diagram id="kgpKYQtTHZ0yAKxKKP6v" name="Page-1">
    <mxGraphModel dx="1185" dy="667" grid="1" gridSize="10" guides="1" tooltips="1" connect="1" arrows="1" fold="1" page="1" pageScale="1" pageWidth="850" pageHeight="1100" math="0" shadow="0">
      <root>
        <mxCell id="0" />
        <mxCell id="1" parent="0" />
        <mxCell id="3nuBFxr9cyL0pnOWT2aG-5" value=":System" style="shape=umlLifeline;perimeter=lifelinePerimeter;container=1;collapsible=0;recursiveResize=0;rounded=0;shadow=0;strokeWidth=1;" parent="1" vertex="1">
          <mxGeometry x="390" y="80" width="100" height="550" as="geometry" />
        </mxCell>
        <mxCell id="NQj3gumwlgIKzEMUg9MZ-14" value="contrôleCoordonnées" style="html=1;verticalAlign=bottom;endArrow=block;rounded=0;exitX=1.25;exitY=0.262;exitDx=0;exitDy=0;exitPerimeter=0;entryX=1;entryY=0.347;entryDx=0;entryDy=0;entryPerimeter=0;" edge="1" parent="3nuBFxr9cyL0pnOWT2aG-5">
          <mxGeometry x="0.0947" y="40" width="80" relative="1" as="geometry">
            <mxPoint x="52.5" y="200.51999999999998" as="sourcePoint" />
            <mxPoint x="50" y="239.62" as="targetPoint" />
            <Array as="points">
              <mxPoint x="90" y="200" />
              <mxPoint x="90" y="240" />
            </Array>
            <mxPoint as="offset" />
          </mxGeometry>
        </mxCell>
        <mxCell id="NQj3gumwlgIKzEMUg9MZ-19" value="contrôleRèglement" style="html=1;verticalAlign=bottom;endArrow=block;rounded=0;exitX=1.083;exitY=0.436;exitDx=0;exitDy=0;exitPerimeter=0;entryX=0.917;entryY=0.522;entryDx=0;entryDy=0;entryPerimeter=0;" edge="1" parent="3nuBFxr9cyL0pnOWT2aG-5">
          <mxGeometry x="-0.0138" y="20" width="80" relative="1" as="geometry">
            <mxPoint x="50.830000000000155" y="280.55999999999995" as="sourcePoint" />
            <mxPoint x="49.17000000000007" y="320.1199999999999" as="targetPoint" />
            <Array as="points">
              <mxPoint x="90" y="280" />
              <mxPoint x="90" y="300" />
              <mxPoint x="90" y="320" />
            </Array>
            <mxPoint as="offset" />
          </mxGeometry>
        </mxCell>
        <mxCell id="NQj3gumwlgIKzEMUg9MZ-21" value="enregistrementCommande&lt;br&gt;enregistrementRèglement&lt;br&gt;éditionFacture" style="html=1;verticalAlign=bottom;endArrow=block;rounded=0;" edge="1" parent="3nuBFxr9cyL0pnOWT2aG-5">
          <mxGeometry x="0.1565" y="80" width="80" relative="1" as="geometry">
            <mxPoint x="50" y="360" as="sourcePoint" />
            <mxPoint x="50" y="400" as="targetPoint" />
            <Array as="points">
              <mxPoint x="100" y="360" />
              <mxPoint x="100" y="400" />
            </Array>
            <mxPoint as="offset" />
          </mxGeometry>
        </mxCell>
        <mxCell id="NQj3gumwlgIKzEMUg9MZ-22" value="" style="shape=umlDestroy;whiteSpace=wrap;html=1;strokeWidth=3;" vertex="1" parent="3nuBFxr9cyL0pnOWT2aG-5">
          <mxGeometry x="35" y="520" width="30" height="30" as="geometry" />
        </mxCell>
        <mxCell id="NQj3gumwlgIKzEMUg9MZ-1" value=":Usager" style="shape=umlLifeline;participant=umlActor;perimeter=lifelinePerimeter;whiteSpace=wrap;html=1;container=1;collapsible=0;recursiveResize=0;verticalAlign=top;spacingTop=36;outlineConnect=0;" vertex="1" parent="1">
          <mxGeometry x="150" y="80" width="20" height="400" as="geometry" />
        </mxCell>
        <mxCell id="NQj3gumwlgIKzEMUg9MZ-9" value="nouvelleCommande" style="html=1;verticalAlign=bottom;endArrow=block;entryX=0.5;entryY=0.144;rounded=0;entryDx=0;entryDy=0;entryPerimeter=0;" edge="1" target="3nuBFxr9cyL0pnOWT2aG-5" parent="1" source="NQj3gumwlgIKzEMUg9MZ-1">
          <mxGeometry relative="1" as="geometry">
            <mxPoint x="270" y="160" as="sourcePoint" />
            <mxPoint x="430" y="160" as="targetPoint" />
          </mxGeometry>
        </mxCell>
        <mxCell id="NQj3gumwlgIKzEMUg9MZ-11" value="afficherPanier" style="html=1;verticalAlign=bottom;endArrow=block;rounded=0;exitX=0.483;exitY=0.218;exitDx=0;exitDy=0;exitPerimeter=0;" edge="1" parent="1" source="3nuBFxr9cyL0pnOWT2aG-5" target="NQj3gumwlgIKzEMUg9MZ-1">
          <mxGeometry width="80" relative="1" as="geometry">
            <mxPoint x="430" y="199.56000000000006" as="sourcePoint" />
            <mxPoint x="420" y="410" as="targetPoint" />
          </mxGeometry>
        </mxCell>
        <mxCell id="NQj3gumwlgIKzEMUg9MZ-12" value="saisieCoordonnées" style="html=1;verticalAlign=bottom;endArrow=block;rounded=0;entryX=0.5;entryY=0.286;entryDx=0;entryDy=0;entryPerimeter=0;" edge="1" parent="1" source="NQj3gumwlgIKzEMUg9MZ-1" target="3nuBFxr9cyL0pnOWT2aG-5">
          <mxGeometry width="80" relative="1" as="geometry">
            <mxPoint x="340" y="410" as="sourcePoint" />
            <mxPoint x="427.5" y="238.20000000000005" as="targetPoint" />
          </mxGeometry>
        </mxCell>
        <mxCell id="NQj3gumwlgIKzEMUg9MZ-15" value="validation" style="html=1;verticalAlign=bottom;endArrow=block;rounded=0;entryX=0.5;entryY=0.357;entryDx=0;entryDy=0;entryPerimeter=0;" edge="1" parent="1" source="NQj3gumwlgIKzEMUg9MZ-1" target="3nuBFxr9cyL0pnOWT2aG-5">
          <mxGeometry width="80" relative="1" as="geometry">
            <mxPoint x="340" y="410" as="sourcePoint" />
            <mxPoint x="430" y="278.68000000000006" as="targetPoint" />
          </mxGeometry>
        </mxCell>
        <mxCell id="NQj3gumwlgIKzEMUg9MZ-16" value="demandeInfoPaiement" style="html=1;verticalAlign=bottom;endArrow=block;rounded=0;" edge="1" parent="1" target="NQj3gumwlgIKzEMUg9MZ-1">
          <mxGeometry width="80" relative="1" as="geometry">
            <mxPoint x="440" y="321" as="sourcePoint" />
            <mxPoint x="420" y="410" as="targetPoint" />
          </mxGeometry>
        </mxCell>
        <mxCell id="NQj3gumwlgIKzEMUg9MZ-17" value="validation" style="html=1;verticalAlign=bottom;endArrow=block;rounded=0;entryX=0.479;entryY=0.645;entryDx=0;entryDy=0;entryPerimeter=0;" edge="1" parent="1" source="NQj3gumwlgIKzEMUg9MZ-1" target="3nuBFxr9cyL0pnOWT2aG-5">
          <mxGeometry width="80" relative="1" as="geometry">
            <mxPoint x="340" y="410" as="sourcePoint" />
            <mxPoint x="430" y="438.76" as="targetPoint" />
          </mxGeometry>
        </mxCell>
        <mxCell id="NQj3gumwlgIKzEMUg9MZ-18" value="saisieRèglement" style="html=1;verticalAlign=bottom;endArrow=block;rounded=0;entryX=0.496;entryY=0.503;entryDx=0;entryDy=0;entryPerimeter=0;" edge="1" parent="1" source="NQj3gumwlgIKzEMUg9MZ-1" target="3nuBFxr9cyL0pnOWT2aG-5">
          <mxGeometry width="80" relative="1" as="geometry">
            <mxPoint x="340" y="410" as="sourcePoint" />
            <mxPoint x="430.83000000000015" y="360.55999999999995" as="targetPoint" />
          </mxGeometry>
        </mxCell>
        <mxCell id="NQj3gumwlgIKzEMUg9MZ-20" value="afficherRécapitulatif" style="html=1;verticalAlign=bottom;endArrow=block;rounded=0;exitX=0.479;exitY=0.58;exitDx=0;exitDy=0;exitPerimeter=0;" edge="1" parent="1" source="3nuBFxr9cyL0pnOWT2aG-5" target="NQj3gumwlgIKzEMUg9MZ-1">
          <mxGeometry width="80" relative="1" as="geometry">
            <mxPoint x="440" y="400" as="sourcePoint" />
            <mxPoint x="420" y="410" as="targetPoint" />
          </mxGeometry>
        </mxCell>
      </root>
    </mxGraphModel>
  </diagram>
</mxfile>
